<?xml version="1.0" encoding="utf-8"?>
<!-- Uploaded to: SVG Repo, www.svgrepo.com, Generator: SVG Repo Mixer Tools -->
<svg width="800px" height="800px" viewBox="0 0 1024 1024" class="icon"  version="1.1" xmlns="http://www.w3.org/2000/svg"><path d="M819.2 245.76H204.8c-11.264 0-20.48 9.216-20.48 20.48v51.2c0 11.264 9.216 20.48 20.48 20.48h25.6v542.72c0 14.336 11.264 25.6 25.6 25.6h512c14.336 0 25.6-11.264 25.6-25.6V337.92h25.6c11.264 0 20.48-9.216 20.48-20.48V266.24c0-11.264-9.216-20.48-20.48-20.48z m-40.96 634.88c0 5.632-4.608 10.24-10.24 10.24H256c-5.632 0-10.24-4.608-10.24-10.24V337.92h532.48v542.72z m46.08-563.2c0 3.072-2.048 5.12-5.12 5.12H204.8c-3.072 0-5.12-2.048-5.12-5.12V266.24c0-3.072 2.048-5.12 5.12-5.12h614.4c3.072 0 5.12 2.048 5.12 5.12v51.2z" fill="" /><path d="M742.4 710.144V793.6c0 31.232-25.088 56.32-56.32 56.32H337.92c-31.232 0-56.32-25.088-56.32-56.32v-84.992l460.8 1.536zM302.08 220.16h419.84c5.632 0 10.24 4.608 10.24 10.24v40.96c0 5.632-4.608 10.24-10.24 10.24H302.08c-5.632 0-10.24-4.608-10.24-10.24v-40.96c0-5.632 4.608-10.24 10.24-10.24z" fill="#7ED321" /><path d="M304.64 230.4c-1.536 0-2.56 1.024-2.56 2.56v40.96c0 1.536 1.024 2.56 2.56 2.56h419.84c1.536 0 2.56-1.024 2.56-2.56v-40.96c0-1.536-1.024-2.56-2.56-2.56h-419.84z m0-15.36h419.84c9.728 0 17.92 8.192 17.92 17.92v40.96c0 9.728-8.192 17.92-17.92 17.92h-419.84c-9.728 0-17.92-8.192-17.92-17.92v-40.96c0-9.728 8.192-17.92 17.92-17.92z" fill="" /><path d="M389.12 161.28v81.92c0 4.096 3.584 7.68 7.68 7.68s7.68-3.584 7.68-7.68v-81.92c0-4.096-3.584-7.68-7.68-7.68s-7.68 3.584-7.68 7.68zM660.992 129.024c-13.312-1.536-23.552 1.536-31.232 9.216-7.168 7.168-10.752 16.896-10.24 28.672v76.288c0 4.096 3.584 7.68 7.68 7.68s7.68-3.584 7.68-7.68V166.912c0-8.192 2.048-13.824 6.144-17.92 3.584-4.096 9.728-5.632 18.432-4.608 4.096 0.512 8.192-2.56 8.192-6.656 0.512-4.096-2.56-8.192-6.656-8.704z" fill="" /><path d="M696.32 158.72c11.264 0 20.48-9.216 20.48-20.48s-9.216-20.48-20.48-20.48-20.48 9.216-20.48 20.48 9.216 20.48 20.48 20.48z m0 15.36c-19.968 0-35.84-15.872-35.84-35.84s15.872-35.84 35.84-35.84 35.84 15.872 35.84 35.84-15.872 35.84-35.84 35.84z" fill="" /></svg>